{
  "accessors": [
    {
      "bufferView": 2,
      "componentType": 5126,
      "count": 2,
      "max": [
        10.911330223083496,
        -3.5048110485076904,
        13.200591087341309
      ],
      "min": [
        10.904821395874023,
        -3.52313494682312,
        13.105517387390137
      ],
      "type": "VEC3"
    },
    {
      "bufferView": 1,
      "componentType": 5126,
      "count": 2,
      "max": [
        0.0,
        0.0
      ],
      "min": [
        0.0,
        0.0
      ],
      "type": "VEC2"
    },
    {
      "bufferView": 0,
      "componentType": 5125,
      "count": 2,
      "type": "SCALAR"
    },
    {
      "bufferView": 2,
      "byteOffset": 24,
      "componentType": 5126,
      "count": 56378,
      "max": [
        14.525991439819336,
        6.065288066864014,
        13.576631546020508
      ],
      "min": [
        -12.696907997131348,
        -5.845178127288818,
        -0.2216320037841797
      ],
      "type": "VEC3"
    },
    {
      "bufferView": 2,
      "byteOffset": 676560,
      "componentType": 5126,
      "count": 56378,
      "max": [
        0.9999971389770508,
        0.9999967813491821,
        0.9999964237213135
      ],
      "min": [
        -0.9999986886978149,
        -0.9999946355819702,
        -0.9999979734420776
      ],
      "type": "VEC3"
    },
    {
      "bufferView": 3,
      "componentType": 5126,
      "count": 56378,
      "max": [
        0.9999995827674866,
        0.999995231628418,
        0.9999858736991882,
        1.0
      ],
      "min": [
        -0.999998152256012,
        -0.9999961256980896,
        -0.9999954700469971,
        1.0
      ],
      "type": "VEC4"
    },
    {
      "bufferView": 1,
      "byteOffset": 16,
      "componentType": 5126,
      "count": 56378,
      "max": [
        0.9983410239219666,
        0.9983530044555664
      ],
      "min": [
        0.0016400000313296914,
        0.0016410000389441848
      ],
      "type": "VEC2"
    },
    {
      "bufferView": 0,
      "byteOffset": 8,
      "componentType": 5125,
      "count": 110340,
      "type": "SCALAR"
    }
  ],
  "asset": {
    "extras": {
      "author": "Léonard_Doye Alias Leoskateman (https://sketchfab.com/leoskateman)",
      "license": "CC-BY-4.0 (http://creativecommons.org/licenses/by/4.0/)",
      "source": "https://sketchfab.com/3d-models/small-dump-truck-free-scan-ac775d1288e84833b3d1ed9fced5b228",
      "title": "Small Dump Truck (free scan)"
    },
    "generator": "Sketchfab-11.40.0",
    "version": "2.0"
  },
  "bufferViews": [
    {
      "buffer": 0,
      "byteLength": 441368,
      "name": "floatBufferViews",
      "target": 34963
    },
    {
      "buffer": 0,
      "byteLength": 451040,
      "byteOffset": 441368,
      "byteStride": 8,
      "name": "floatBufferViews",
      "target": 34962
    },
    {
      "buffer": 0,
      "byteLength": 1353096,
      "byteOffset": 892408,
      "byteStride": 12,
      "name": "floatBufferViews",
      "target": 34962
    },
    {
      "buffer": 0,
      "byteLength": 902048,
      "byteOffset": 2245504,
      "byteStride": 16,
      "name": "floatBufferViews",
      "target": 34962
    }
  ],
  "buffers": [
    {
      "byteLength": 3147552,
      "uri": "scene.bin"
    }
  ],
  "images": [
    {
      "uri": "textures/3.5T_ben_baseColor.png"
    },
    {
      "uri": "textures/3.5T_ben_metallicRoughness.png"
    },
    {
      "uri": "textures/3.5T_ben_normal.png"
    }
  ],
  "materials": [
    {
      "doubleSided": true,
      "name": "3.5T_ben",
      "normalTexture": {
        "index": 2
      },
      "pbrMetallicRoughness": {
        "baseColorTexture": {
          "index": 0
        },
        "metallicFactor": 0.0,
        "metallicRoughnessTexture": {
          "index": 1
        }
      }
    }
  ],
  "meshes": [
    {
      "name": "Object_0",
      "primitives": [
        {
          "attributes": {
            "POSITION": 0,
            "TEXCOORD_0": 1
          },
          "indices": 2,
          "material": 0,
          "mode": 1
        }
      ]
    },
    {
      "name": "Object_1",
      "primitives": [
        {
          "attributes": {
            "NORMAL": 4,
            "POSITION": 3,
            "TANGENT": 5,
            "TEXCOORD_0": 6
          },
          "indices": 7,
          "material": 0,
          "mode": 4
        }
      ]
    }
  ],
  "nodes": [
    {
      "children": [
        1
      ],
      "matrix": [
        1.0,
        0.0,
        0.0,
        0.0,
        0.0,
        2.220446049250313e-16,
        -1.0,
        0.0,
        0.0,
        1.0,
        2.220446049250313e-16,
        0.0,
        0.0,
        0.0,
        0.0,
        1.0
      ],
      "name": "Sketchfab_model"
    },
    {
      "children": [
        2,
        3
      ],
      "name": "camion_benne_low.obj.cleaner.materialmerger.gles"
    },
    {
      "mesh": 0,
      "name": "Object_2"
    },
    {
      "mesh": 1,
      "name": "Object_3"
    }
  ],
  "samplers": [
    {
      "magFilter": 9729,
      "minFilter": 9987,
      "wrapS": 10497,
      "wrapT": 10497
    }
  ],
  "scene": 0,
  "scenes": [
    {
      "name": "Sketchfab_Scene",
      "nodes": [
        0
      ]
    }
  ],
  "textures": [
    {
      "sampler": 0,
      "source": 0
    },
    {
      "sampler": 0,
      "source": 1
    },
    {
      "sampler": 0,
      "source": 2
    }
  ]
}
